<?xml version="1.0" standalone="no"?>
<!DOCTYPE svg PUBLIC "-//W3C//DTD SVG 20010904//EN"
 "http://www.w3.org/TR/2001/REC-SVG-20010904/DTD/svg10.dtd">
<svg version="1.0" xmlns="http://www.w3.org/2000/svg"
 width="100.000000pt" height="100.000000pt" viewBox="0 0 100.000000 100.000000"
 preserveAspectRatio="xMidYMid meet">

<g transform="translate(0.000000,100.000000) scale(0.100000,-0.100000)"
fill="#000000" stroke="none">
<path d="M386 944 c-171 -41 -308 -192 -338 -371 -51 -303 217 -573 521 -526
98 15 171 52 245 123 340 326 31 885 -428 774z m314 -244 c0 -18 -7 -20 -56
-20 l-55 0 19 -27 c11 -16 23 -38 26 -50 6 -17 15 -23 37 -23 22 0 29 -5 29
-20 0 -15 -7 -20 -29 -20 -22 0 -31 -6 -36 -22 -10 -32 -52 -85 -78 -100 -12
-6 -53 -14 -91 -17 l-69 -6 96 -78 c64 -52 94 -83 90 -93 -3 -7 -9 -14 -13
-14 -5 0 -58 41 -119 91 -84 68 -111 96 -111 114 0 22 3 23 94 27 88 3 97 5
124 32 17 15 32 37 35 47 5 18 -2 19 -124 19 -122 0 -129 1 -129 20 0 19 7 20
129 20 122 0 129 1 124 19 -3 10 -18 32 -35 47 -27 27 -36 29 -124 32 -85 4
-94 6 -94 23 0 18 10 19 180 19 173 0 180 -1 180 -20z"/>
</g>
</svg>
